<?xml version="1.0" encoding="UTF-8"?>
<!--suppress XmlUnusedNamespaceDeclaration -->
<svg id="Layer_2" xmlns="http://www.w3.org/2000/svg" xmlns:xlink="http://www.w3.org/1999/xlink" viewBox="0 0 425.12 85.89">
  <defs>
    <style>
      .cls-1 {
        fill: url(#linear-gradient-2);
      }

      .cls-2 {
        letter-spacing: -.06em;
      }

      .cls-3 {
        letter-spacing: -.04em;
      }

      .cls-4 {
        fill: #68bd45;
        font-family: Corbel-Bold, Corbel;
        font-size: 43.56px;
        font-weight: 700;
      }

      .cls-5 {
        fill: #bababa;
        font-family: Corbel-Italic, Corbel;
        font-size: 26.76px;
        font-style: italic;
      }

      .cls-6 {
        fill: url(#linear-gradient);
      }
    </style>
    <linearGradient id="linear-gradient" x1="43.56" y1="85.89" x2="43.56" y2="0" gradientUnits="userSpaceOnUse">
      <stop offset=".31" stop-color="#2d2a2b"/>
      <stop offset=".66" stop-color="#4a4b4c"/>
      <stop offset=".95" stop-color="#2d2a2b"/>
    </linearGradient>
    <linearGradient id="linear-gradient-2" x1="43.22" y1="73.72" x2="43.22" y2="13.52" gradientUnits="userSpaceOnUse">
      <stop offset=".31" stop-color="#68bd45"/>
      <stop offset=".66" stop-color="#a4d06e"/>
      <stop offset=".95" stop-color="#68bd45"/>
    </linearGradient>
  </defs>
  <g id="Layer_5">
    <text class="cls-4" transform="translate(92.88 41.93)"><tspan x="0" y="0">Vulcan</tspan><tspan class="cls-2" x="128.3" y="0">T</tspan><tspan x="150.37" y="0">unes.com</tspan></text>
    <text class="cls-5" transform="translate(100.37 73.29)"><tspan class="cls-3" x="0" y="0">Y</tspan><tspan x="13.16" y="0">our ride just got better</tspan></text>
    <path class="cls-6" d="M.88,2.06c.39-.39.78-.78,1.17-1.17C3.53-.04,5.18-.02,6.84.01c.85.02,1.7,0,2.55,0,9.9.02,13.81-.01,23.71.07,7.3.06,14.59-.03,21.89.06,7.32.08,8.63-.03,15.95.06,3.69.04,7.37,0,11.06.05,1.1.01,2.12.31,3.06.87.49.29.72.84,1.18,1.16.7,1.2.93,2.5.88,3.87-.01.29.02.55-.48.52.51,0,.42.3.42.55-.1,3.72-1.66,50.71-1.73,52.96-.06,1.92-.66,3.69-1.52,5.38-.57.85-1.17,1.68-1.85,2.44-.35.35-.7.7-1.05,1.05-.54.5-1.07,1-1.61,1.51-.42.35-.81.74-1.16,1.16-.64.47-1.12,1.12-1.73,1.63-.47.46-.95.92-1.42,1.37-.49.47-.98.94-1.48,1.41-.48.37-.89.81-1.28,1.27-.61.43-1.05,1.04-1.61,1.51-.47.46-.95.92-1.42,1.37-1.2,1.1-2.32,2.29-3.63,3.27-.5.37-1.05.69-1.58,1.02-1,.38-1.98.81-3.05,1.02-.8.16-1.59.25-2.4.25-6.06.01-6.12.06-12.18,0-7.6-.09-9.21,0-16.81-.06-1.78-.02-3.58.04-5.32-.5-.97-.3-1.89-.7-2.79-1.17-1.04-.67-1.99-1.47-2.89-2.32-.82-.81-1.64-1.62-2.46-2.43-.88-.85-1.76-1.7-2.64-2.56-.82-.81-1.64-1.62-2.46-2.43-.88-.85-1.76-1.7-2.64-2.56-.82-.81-1.64-1.62-2.46-2.43-.5-.47-1-.94-1.5-1.41-.5-.73-1.16-1.33-1.62-2.08-.72-1.23-1.27-2.52-1.58-3.92-.18-.81-.26-1.64-.28-2.46-.05-2.26-.04-4.52-.07-6.77C.78,49.66.01,9.49.01,7.59c0-1.24-.08-2.48.14-3.72.12-.67.55-1.17.72-1.8Z"/>
    <path class="cls-1" d="M52.23,17.94c-.92-1.27-1.87-2.52-2.87-3.74-.1-.16-.19-.32-.3-.48.17-.12.35-.07.52-.07,3.65,0,7.3-.07,10.95.01,4.09.1,8.18.03,12.27.05.55,0,.5.17.36.57-2.21,6.48-4.41,12.97-6.61,19.46-2.12,6.25-4.22,12.51-6.34,18.76-2.32,6.87-4.66,13.73-6.97,20.61-.16.46-.37.6-.85.59-2.05-.03-4.1.04-6.14-.02-4.25-.14-8.49-.03-12.74-.06-.4,0-.55-.12-.68-.5-3.67-11.13-7.36-22.26-11.04-33.39-1.24-3.74-2.46-7.47-3.69-11.21-1.64-4.97-3.27-9.94-4.93-15.01,7.9.18,15.76.06,23.74.11-.52.68-.97,1.27-1.42,1.85-.47.61-.95,1.21-1.43,1.81q-.87,1.09-.55,2.41c1.87,7.79,3.74,15.57,5.61,23.36,1.12,4.65,2.24,9.3,2.96,14.04,0,.02,0,.04.01.06.09.28.07.66.49.67.43,0,.44-.36.5-.66.18-.92.38-1.84.53-2.77.57-3.65,1.63-7.19,2.53-10.76,1.23-4.92,2.52-9.82,3.78-14.73.86-3.33,1.7-6.66,2.58-9.98.11-.43.02-.7-.27-.96Z"/>
  </g>
</svg>